# xmcd
#
# Track frame offsets: 
#        150
#        10398
#        23983
#        39237
#        57472
#        73523
#        86827
#        97712
#        112085
#        125033
#        144206
#        160135
#        171958
#        183387
#        197460
#        210827
#        225686
#        237554
#        249171
#        272512
#
# Disc length: 3755 seconds
#
# Revision: 0
# Processed by: cddbd v1.5.2PL0 Copyright (c) Steve Scherf et al.
# Submitted via: ExactAudioCopyFreeDBPlugin 1.0
#
DISCID=0a0ea914
DTITLE=Joan Baez - Plaisir d'amour
DYEAR=2019
DGENRE=Blues
TTITLE0=Wagoner's lad
TTITLE1=The Trees they do grow high
TTITLE2=Lily of the west
TTITLE3=Silkie
TTITLE4=Engine 143
TTITLE5=Once I knew a pretty girl
TTITLE6=Lonesome road
TTITLE7=Banks of Ohio
TTITLE8=Pal of mine
TTITLE9=Barbara Allen
TTITLE10=The Cherry Tree Carol
TTITLE11=Old blue
TTITLE12=Railroad boy
TTITLE13=Plaisir d'amour
TTITLE14=Poor Boy
TTITLE15=Longest train I ever saw
TTITLE16=I Once loved a boy
TTITLE17=What have they done to the rain
TTITLE18=The House Carpenter
TTITLE19=Railroad Bill
EXTD=
EXTT0=
EXTT1=
EXTT2=
EXTT3=
EXTT4=
EXTT5=
EXTT6=
EXTT7=
EXTT8=
EXTT9=
EXTT10=
EXTT11=
EXTT12=
EXTT13=
EXTT14=
EXTT15=
EXTT16=
EXTT17=
EXTT18=
EXTT19=
PLAYORDER=
